<svg xmlns="http://www.w3.org/2000/svg" xmlns:xlink="http://www.w3.org/1999/xlink" width="1080" zoomAndPan="magnify" viewBox="0 0 810 809.999993" height="1080" preserveAspectRatio="xMidYMid meet" version="1.0"><defs><clipPath id="ce7198eb49"><path d="M 11 5.15625 L 800 5.15625 L 800 804.65625 L 11 804.65625 Z M 11 5.15625 " clip-rule="nonzero"/></clipPath></defs><g clip-path="url(#ce7198eb49)"><path fill="#cfd8ff" d="M 785.183594 555.800781 L 687.273438 700.988281 C 675.300781 718.742188 656.777344 730.980469 635.761719 735.085938 C 614.746094 739.1875 592.992188 734.746094 575.238281 722.777344 L 573.320312 721.464844 L 573.320312 723.785156 C 573.320312 768.339844 537.175781 804.484375 492.625 804.484375 L 317.476562 804.484375 C 272.925781 804.484375 236.78125 768.339844 236.78125 723.785156 L 236.78125 721.464844 L 234.863281 722.777344 C 217.109375 734.746094 195.355469 739.1875 174.339844 735.085938 C 153.324219 731.015625 134.796875 718.742188 122.828125 700.988281 L 24.914062 555.835938 C 0 518.882812 9.75 468.714844 46.703125 443.800781 L 104.167969 405.03125 L 46.703125 366.261719 C 9.71875 341.347656 -0.0351562 291.179688 24.914062 254.230469 L 122.863281 109.039062 C 147.777344 72.089844 197.945312 62.335938 234.898438 87.253906 L 236.8125 88.5625 L 236.8125 86.242188 C 236.8125 41.691406 272.957031 5.546875 317.511719 5.546875 L 492.625 5.546875 C 537.175781 5.546875 573.320312 41.691406 573.320312 86.242188 L 573.320312 88.5625 L 575.238281 87.253906 C 612.191406 62.335938 662.355469 72.089844 687.273438 109.039062 L 785.183594 254.230469 C 810.101562 291.179688 800.351562 341.347656 763.398438 366.261719 L 705.933594 405.03125 L 763.398438 443.800781 C 800.382812 468.714844 810.132812 518.882812 785.183594 555.800781 Z M 785.183594 555.800781 " fill-opacity="1" fill-rule="nonzero"/></g><path fill="#002ef4" d="M 731.453125 491.175781 L 603.71875 405.03125 L 731.453125 318.886719 C 742.246094 311.625 745.070312 297 737.808594 286.203125 L 639.898438 141.015625 C 632.632812 130.222656 618.007812 127.398438 607.214844 134.660156 L 516.160156 196.09375 L 516.160156 86.242188 C 516.160156 73.230469 505.636719 62.707031 492.625 62.707031 L 317.476562 62.707031 C 304.464844 62.707031 293.941406 73.230469 293.941406 86.242188 L 293.941406 196.058594 L 202.886719 134.660156 C 192.128906 127.398438 177.46875 130.222656 170.203125 141.015625 L 72.292969 286.203125 C 65.027344 297 67.851562 311.625 78.644531 318.886719 L 206.382812 405.03125 L 78.644531 491.175781 C 67.851562 498.4375 65.027344 513.066406 72.292969 523.859375 L 170.238281 669.046875 C 173.734375 674.226562 179.148438 677.789062 185.269531 679 C 191.386719 680.210938 197.742188 678.898438 202.921875 675.402344 L 293.972656 613.972656 L 293.972656 723.820312 C 293.972656 736.832031 304.5 747.355469 317.511719 747.355469 L 492.625 747.355469 C 505.636719 747.355469 516.160156 736.832031 516.160156 723.820312 L 516.160156 613.972656 L 607.214844 675.402344 C 612.390625 678.898438 618.746094 680.175781 624.867188 679 C 630.988281 677.824219 636.398438 674.226562 639.898438 669.046875 L 737.808594 523.859375 C 745.070312 513.066406 742.246094 498.4375 731.453125 491.175781 Z M 614.007812 623.21875 L 505.769531 550.21875 C 498.574219 545.34375 489.261719 544.875 481.5625 548.941406 C 473.863281 553.011719 469.085938 561.011719 469.085938 569.722656 L 469.085938 700.285156 L 341.015625 700.285156 L 341.015625 569.722656 C 341.015625 561.011719 336.207031 553.011719 328.539062 548.941406 C 320.839844 544.875 311.558594 545.34375 304.328125 550.21875 L 196.09375 623.21875 L 124.476562 517.066406 L 261.628906 424.566406 C 268.117188 420.195312 272.015625 412.867188 272.015625 405.066406 C 272.015625 397.265625 268.117188 389.933594 261.628906 385.5625 L 124.476562 292.996094 L 196.09375 186.847656 L 304.328125 259.84375 C 311.558594 264.71875 320.871094 265.191406 328.539062 261.121094 C 336.238281 257.019531 341.015625 249.050781 341.015625 240.34375 L 341.015625 109.78125 L 469.054688 109.78125 L 469.054688 240.34375 C 469.054688 249.050781 473.863281 257.054688 481.527344 261.121094 C 489.195312 265.191406 498.507812 264.71875 505.738281 259.84375 L 613.972656 186.847656 L 685.589844 292.996094 L 548.441406 385.496094 C 541.949219 389.867188 538.050781 397.199219 538.050781 405 C 538.050781 412.800781 541.949219 420.128906 548.441406 424.5 L 685.589844 517 Z M 614.007812 623.21875 " fill-opacity="1" fill-rule="nonzero"/></svg>